<?xml version="1.0" encoding="UTF-8"?>
<svg version="1.1" xmlns="http://www.w3.org/2000/svg" width="236" height="117">
<path d="M0 0 C77.88 0 155.76 0 236 0 C236 38.61 236 77.22 236 117 C158.12 117 80.24 117 0 117 C0 78.39 0 39.78 0 0 Z " fill="#FEFEFE" transform="translate(0,0)"/>
<path d="M0 0 C10.73853337 6.82918814 18.49103752 16.43166715 21.3125 29 C23.38205233 41.91963252 20.93315752 53.63499365 13.75390625 64.71875 C6.68697668 73.91048022 -2.82289968 79.32543785 -14 82 C-27.13605853 83.51858336 -37.93506606 81.57956235 -48.8125 73.75 C-57.86713292 66.17166592 -64.38806583 55.83395572 -66 44 C-67.11034172 30.10390518 -64.00062181 19.68380896 -55 9 C-40.47969772 -6.12096227 -18.70383181 -10.22785293 0 0 Z " fill="#BC012C" transform="translate(138,23)"/>
<path d="M0 0 C0 3 0 3 -1.75 5.04296875 C-2.4925 5.75066406 -3.235 6.45835938 -4 7.1875 C-4.7425 7.90292969 -5.485 8.61835937 -6.25 9.35546875 C-7.11625 10.16951172 -7.11625 10.16951172 -8 11 C-8.66 10.67 -9.32 10.34 -10 10 C-8.90033225 8.70450101 -7.79508199 7.41373929 -6.6875 6.125 C-6.07261719 5.40570312 -5.45773438 4.68640625 -4.82421875 3.9453125 C-3 2 -3 2 0 0 Z " fill="#BC0F29" transform="translate(90,26)"/>
</svg>
